<?xml version="1.0" encoding="UTF-8"?>
<svg version="1.1" xmlns="http://www.w3.org/2000/svg" width="200" height="200">
<path d="M0 0 C66 0 132 0 200 0 C200 66 200 132 200 200 C134 200 68 200 0 200 C0 134 0 68 0 0 Z " fill="#FD9900" transform="translate(0,0)"/>
<path d="M0 0 C-3.23739359 2.1582624 -6.39473052 3.17273859 -10.0625 4.3125 C-16.28948267 6.31709725 -22.43951193 8.47835755 -28 12 C-28.33 12.66 -28.66 13.32 -29 14 C-28.21882813 13.71125 -27.43765625 13.4225 -26.6328125 13.125 C-14.71315129 9.30221333 -3.13849033 9.65597295 9.28369141 10.05004883 C11.97889516 10.00038886 14.3669177 9.53506637 17 9 C18.921875 9.671875 18.921875 9.671875 20.75 10.75 C23.5987706 12.31842426 26.25494271 13.45993019 29.375 14.375 C34.74992793 16.05407871 39.29321943 18.96368435 44 22 C43.34 22.33 42.68 22.66 42 23 C39.75 22.109375 39.75 22.109375 37 20.75 C28.88835994 16.94336107 21.98142092 14.67340288 13 15 C12.505 14.505 12.505 14.505 12 14 C-1.50528516 12.97762016 -15.07944537 13.09264322 -28.05859375 17.125 C-31 18 -31 18 -35 18 C-35.33 18.99 -35.66 19.98 -36 21 C-38.31 21.33 -40.62 21.66 -43 22 C-43.185625 23.27875 -43.37125 24.5575 -43.5625 25.875 C-43.66691406 26.59429687 -43.77132812 27.31359375 -43.87890625 28.0546875 C-44.1684297 30.08140667 -44.1684297 30.08140667 -43 32 C-41.02 31.34 -39.04 30.68 -37 30 C-37 30.99 -37 31.98 -37 33 C-36.01 33 -35.02 33 -34 33 C-34 33.66 -34 34.32 -34 35 C-33.32453125 34.62746094 -32.6490625 34.25492188 -31.953125 33.87109375 C-31.06109375 33.39800781 -30.1690625 32.92492187 -29.25 32.4375 C-28.36828125 31.96183594 -27.4865625 31.48617187 -26.578125 30.99609375 C-23.70419895 29.88571323 -22.83781787 30.09976786 -20 31 C-19.01 30.67 -18.02 30.34 -17 30 C-17 30.66 -17 31.32 -17 32 C-15.7934375 31.9690625 -15.7934375 31.9690625 -14.5625 31.9375 C-12 32 -12 32 -11 33 C-8.02903908 32.93397865 -5.08945144 32.80618888 -2.125 32.625 C-1.26181152 32.57537109 -0.39862305 32.52574219 0.49072266 32.47460938 C12.31707048 31.82460122 12.31707048 31.82460122 24 30 C24 30.33 24 30.66 24 31 C26.31 31.66 28.62 32.32 31 33 C31.495 32.01 31.495 32.01 32 31 C32.495 32.98 32.495 32.98 33 35 C33.65484375 34.835 34.3096875 34.67 34.984375 34.5 C38.75522351 33.87478159 42.4431376 33.93153125 46.25 34 C48.83968812 34.0455931 51.40895106 34.04732509 54 34 C54.33 33.67 54.66 33.34 55 33 C56.99958364 32.95919217 59.00045254 32.95745644 61 33 C61 31.35 61 29.7 61 28 C62.98 28 64.96 28 67 28 C67.22370596 30.20682907 67.42830391 32.41559973 67.625 34.625 C67.74101562 35.85476562 67.85703125 37.08453125 67.9765625 38.3515625 C68.00034163 42.05318114 67.37441976 44.59017997 66 48 C63.525 48.495 63.525 48.495 61 49 C61 49.66 61 50.32 61 51 C62.32 51 63.64 51 65 51 C65 53.64 65 56.28 65 59 C64.34 59 63.68 59 63 59 C63 57.35 63 55.7 63 54 C62.34 54 61.68 54 61 54 C61 55.65 61 57.3 61 59 C60.34 59 59.68 59 59 59 C59 57.35 59 55.7 59 54 C58.01 54 57.02 54 56 54 C56.020625 54.804375 56.04125 55.60875 56.0625 56.4375 C56 59 56 59 55 60 C52.87615672 60.0731351 50.74999728 60.08360924 48.625 60.0625 C47.46226562 60.05347656 46.29953125 60.04445312 45.1015625 60.03515625 C44.07804687 60.02355469 43.05453125 60.01195312 42 60 C39.16154527 59.87210932 39.16154527 59.87210932 37.13330078 60.49389648 C34.64719797 61.08369863 32.42161702 61.11272048 29.8671875 61.09765625 C28.89652344 61.09443359 27.92585938 61.09121094 26.92578125 61.08789062 C25.91902344 61.07951172 24.91226563 61.07113281 23.875 61.0625 C22.86050781 61.05798828 21.84601563 61.05347656 20.80078125 61.04882812 C18.20047206 61.03670951 15.60026594 61.01890151 13 61 C11.39256942 61 9.78513954 61.00683096 8.17773438 61.01586914 C4.97884381 61.03308388 1.77997689 61.04548749 -1.41894531 61.05493164 C-2.79200012 61.05992515 -4.16504972 61.06672228 -5.53808594 61.07543945 C-13.42351166 61.12412671 -21.17439347 61.03170526 -29 60 C-29 57.36 -29 54.72 -29 52 C-27.68 52 -26.36 52 -25 52 C-25.495 50.02 -25.495 50.02 -26 48 C-26.33 48.33 -26.66 48.66 -27 49 C-28.66617115 49.04063832 -30.33388095 49.042721 -32 49 C-32 48.01 -32 47.02 -32 46 C-32.9590625 46.2475 -32.9590625 46.2475 -33.9375 46.5 C-37.97586652 47.15932515 -41.91807258 47.08003779 -46 47 C-46.33 46.34 -46.66 45.68 -47 45 C-48.794375 45.495 -48.794375 45.495 -50.625 46 C-54.20018388 46.87015057 -57.30696442 47.49240474 -61 47 C-63.69990662 45.20006226 -65.5418865 43.916227 -67 41 C-67.37605924 36.48728907 -67.30761749 33.80566485 -65.6875 29.5625 C-62.56501597 26.58524779 -61.92908178 26.72301385 -57.8125 26.625 C-51.814905 26.39523744 -49.57315196 24.37183528 -45.421875 20.25 C-34.84049492 10.41955657 -14.70652965 -0.4386158 0 0 Z " fill="#F3A915" transform="translate(101,68)"/>
<path d="M0 0 C0.495 0.495 0.495 0.495 1 1 C2.546875 0.87625 2.546875 0.87625 4.125 0.75 C11.00203409 0.61220879 17.61861276 3.69119441 24 6 C26.8125 7.27083333 26.8125 7.27083333 28.875 6.375 C31 6 31 6 33.625 7.125 C36.33277226 9.26271494 37.07390107 10.71655833 38 14 C38 14.66 38 15.32 38 16 C39.98 16.495 39.98 16.495 42 17 C42 17.66 42 18.32 42 19 C43.98 19 45.96 19 48 19 C48.33 17.68 48.66 16.36 49 15 C49 16.65 49 18.3 49 20 C42.9926164 22.09385984 37.5181137 22.30242744 31.1875 22.25 C30.23423828 22.25773437 29.28097656 22.26546875 28.29882812 22.2734375 C26.93467773 22.26957031 26.93467773 22.26957031 25.54296875 22.265625 C24.71821045 22.26336914 23.89345215 22.26111328 23.04370117 22.25878906 C21 22 21 22 19 20 C17.09419132 19.57812196 17.09419132 19.57812196 15 19.4375 C12.62030153 19.22315216 11.15322664 19.07661332 9 18 C6.99722415 18.31622777 4.99810662 18.65549886 3 19 C-5.97626513 19.91284052 -14.99715006 20.42194816 -24 21 C-24 20.34 -24 19.68 -24 19 C-25.65 19 -27.3 19 -29 19 C-29 18.34 -29 17.68 -29 17 C-30.98 17.99 -30.98 17.99 -33 19 C-33 18.34 -33 17.68 -33 17 C-33.77085938 17.3609375 -34.54171875 17.721875 -35.3359375 18.09375 C-36.33882812 18.5578125 -37.34171875 19.021875 -38.375 19.5 C-39.37273437 19.9640625 -40.37046875 20.428125 -41.3984375 20.90625 C-44 22 -44 22 -46 22 C-46 21.34 -46 20.68 -46 20 C-46.99 20 -47.98 20 -49 20 C-49 19.01 -49 18.02 -49 17 C-51.31 17.99 -53.62 18.98 -56 20 C-57.13480904 17.1629774 -56.9262385 15.46522911 -56.5 12.375 C-56.005 11.26125 -55.51 10.1475 -55 9 C-51.4375 7.6875 -51.4375 7.6875 -48 7 C-47.67 6.34 -47.34 5.68 -47 5 C-31.89972683 -0.52449019 -15.94444811 -1.35194956 0 0 Z " fill="#F8A806" transform="translate(113,81)"/>
<path d="M0 0 C1.98 0 3.96 0 6 0 C6.22370596 2.20682907 6.42830391 4.41559973 6.625 6.625 C6.74101562 7.85476562 6.85703125 9.08453125 6.9765625 10.3515625 C7.00034163 14.05318114 6.37441976 16.59017997 5 20 C3.35 20.33 1.7 20.66 0 21 C0 21.66 0 22.32 0 23 C1.32 23 2.64 23 4 23 C4 25.64 4 28.28 4 31 C3.34 31 2.68 31 2 31 C2 29.35 2 27.7 2 26 C1.34 26 0.68 26 0 26 C0 27.65 0 29.3 0 31 C-0.66 31 -1.32 31 -2 31 C-2 29.35 -2 27.7 -2 26 C-2.99 26 -3.98 26 -5 26 C-4.979375 26.804375 -4.95875 27.60875 -4.9375 28.4375 C-5 31 -5 31 -6 32 C-8.12384328 32.0731351 -10.25000272 32.08360924 -12.375 32.0625 C-13.53773438 32.05347656 -14.70046875 32.04445312 -15.8984375 32.03515625 C-16.92195313 32.02355469 -17.94546875 32.01195312 -19 32 C-21.83845473 31.87210932 -21.83845473 31.87210932 -23.86669922 32.49389648 C-26.35280203 33.08369863 -28.57838298 33.11272048 -31.1328125 33.09765625 C-32.10347656 33.09443359 -33.07414062 33.09121094 -34.07421875 33.08789062 C-35.08097656 33.07951172 -36.08773437 33.07113281 -37.125 33.0625 C-38.64673828 33.05573242 -38.64673828 33.05573242 -40.19921875 33.04882812 C-42.79952794 33.03670951 -45.39973406 33.01890151 -48 33 C-49.63387901 33 -51.26775676 33.00693346 -52.90161133 33.01586914 C-56.16561536 33.03297404 -59.42957192 33.04543545 -62.69360352 33.05493164 C-64.1008377 33.05995806 -65.50806668 33.06678016 -66.9152832 33.07543945 C-68.95004551 33.08762652 -70.984739 33.09325435 -73.01953125 33.09765625 C-74.84641479 33.10551147 -74.84641479 33.10551147 -76.71020508 33.11352539 C-79.61124808 33.01341519 -82.18473699 32.67375808 -85 32 C-83.75 29.5 -83.75 29.5 -82 27 C-80.68 27 -79.36 27 -78 27 C-77.67 27.99 -77.34 28.98 -77 30 C-72.49004335 30.67858144 -68.28454007 31.18364249 -63.75 30.5 C-60.34767288 30.04635638 -58.25860309 30.13742859 -55 31 C-54.34 31 -53.68 31 -53 31 C-53 28.69 -53 26.38 -53 24 C-56.63 24 -60.26 24 -64 24 C-64 23.34 -64 22.68 -64 22 C-64.66 21.67 -65.32 21.34 -66 21 C-65.06027344 21.03480469 -65.06027344 21.03480469 -64.1015625 21.0703125 C-62.87566406 21.09738281 -62.87566406 21.09738281 -61.625 21.125 C-60.81289062 21.14820312 -60.00078125 21.17140625 -59.1640625 21.1953125 C-56.78657757 21.21370051 -56.78657757 21.21370051 -55 19 C-54.67 19.33 -54.34 19.66 -54 20 C-52.36846676 19.79605835 -50.73752704 19.58369991 -49.11328125 19.328125 C-46.8083286 18.97023956 -44.50270074 18.65925728 -42.1875 18.375 C-41.43855469 18.27960938 -40.68960938 18.18421875 -39.91796875 18.0859375 C-38 18 -38 18 -36 19 C-36 19.66 -36 20.32 -36 21 C-31.7979813 19.66781128 -31.7979813 19.66781128 -27.8125 17.8125 C-26 17 -26 17 -23 18 C-21.10787263 18.22179785 -19.21115528 18.40614015 -17.3125 18.5625 C-15.559375 18.706875 -13.80625 18.85125 -12 19 C-12 14.71 -12 10.42 -12 6 C-10.35 6 -8.7 6 -7 6 C-6.67 5.67 -6.34 5.34 -6 5 C-4.00041636 4.95919217 -1.99954746 4.95745644 0 5 C0 3.35 0 1.7 0 0 Z " fill="#F9A505" transform="translate(162,96)"/>
<path d="M0 0 C0.99 0.33 1.98 0.66 3 1 C5.33183607 1.67188497 7.66501142 2.33915417 10 3 C10.33 2.34 10.66 1.68 11 1 C11.33 2.32 11.66 3.64 12 5 C12.70511719 4.83628906 13.41023438 4.67257813 14.13671875 4.50390625 C18.76257172 3.68980661 23.30953271 3.94348835 28 4 C28 8.29 28 12.58 28 17 C17.58529081 17.12547842 17.58529081 17.12547842 14.23046875 16.40625 C13.49441406 16.2721875 12.75835937 16.138125 12 16 C10.97895449 16.97850195 9.9793879 17.97980427 9 19 C6.3125 19.1875 6.3125 19.1875 4 19 C4 18.34 4 17.68 4 17 C2.79601562 17.03480469 1.59203125 17.06960937 0.3515625 17.10546875 C-1.22394442 17.1336028 -2.79946638 17.16090337 -4.375 17.1875 C-5.1690625 17.21263672 -5.963125 17.23777344 -6.78125 17.26367188 C-8.85586148 17.29004405 -10.93100865 17.15486462 -13 17 C-15.20914 13.68629 -15.22481553 12.6553979 -15.125 8.8125 C-15.10695313 7.91144531 -15.08890625 7.01039062 -15.0703125 6.08203125 C-15.04710938 5.39496094 -15.02390625 4.70789063 -15 4 C-14.01 4 -13.02 4 -12 4 C-11.67 7.3 -11.34 10.6 -11 14 C-9.68 14 -8.36 14 -7 14 C-7.05800781 13.31292969 -7.11601563 12.62585938 -7.17578125 11.91796875 C-7.31162989 9.20487737 -7.36070164 6.69439781 -7 4 C-4.625 1.9375 -4.625 1.9375 -2 1 C-1.34 0.67 -0.68 0.34 0 0 Z " fill="#F2AF2B" transform="translate(122,98)"/>
<path d="M0 0 C0 0.66 0 1.32 0 2 C4.62 1.67 9.24 1.34 14 1 C14 1.99 14 2.98 14 4 C16.31 3.34 18.62 2.68 21 2 C21 3.65 21 5.3 21 7 C19.68 7 18.36 7 17 7 C17 9.64 17 12.28 17 15 C13.46599146 16.07670039 10.12089824 16.1997147 6.4375 16.25 C4.73400391 16.28867188 4.73400391 16.28867188 2.99609375 16.328125 C0 16 0 16 -1.90234375 14.484375 C-2.26457031 13.99453125 -2.62679687 13.5046875 -3 13 C-3.69480469 13.32742187 -4.38960937 13.65484375 -5.10546875 13.9921875 C-8.36368828 15.12662831 -10.87449502 15.20056055 -14.3125 15.125 C-15.38113281 15.10695312 -16.44976562 15.08890625 -17.55078125 15.0703125 C-18.35902344 15.04710937 -19.16726562 15.02390625 -20 15 C-20 14.01 -20 13.02 -20 12 C-19.34 12.33 -18.68 12.66 -18 13 C-18 12.34 -18 11.68 -18 11 C-19.32 10.67 -20.64 10.34 -22 10 C-22 8.68 -22 7.36 -22 6 C-20.02 5.67 -18.04 5.34 -16 5 C-15.67 4.01 -15.34 3.02 -15 2 C-12.3828125 1.015625 -12.3828125 1.015625 -9.125 0.25 C-8.05507813 -0.01296875 -6.98515625 -0.2759375 -5.8828125 -0.546875 C-3 -1 -3 -1 0 0 Z " fill="#F8A20B" transform="translate(55,113)"/>
<path d="M0 0 C0 0.66 0 1.32 0 2 C2.31 2.33 4.62 2.66 7 3 C7 3.66 7 4.32 7 5 C7.99 5 8.98 5 10 5 C11.4606285 7.64738916 12 8.89448334 12 12 C14.31 12.66 16.62 13.32 19 14 C19 14.66 19 15.32 19 16 C19.94875 15.938125 20.8975 15.87625 21.875 15.8125 C22.90625 15.874375 23.9375 15.93625 25 16 C25.66 16.99 26.32 17.98 27 19 C25.10174715 18.57312017 23.20646817 18.13300518 21.3125 17.6875 C20.25675781 17.44386719 19.20101562 17.20023438 18.11328125 16.94921875 C15.01416834 16.00431983 12.71630882 14.73541952 10 13 C7.80869466 12.30420546 7.80869466 12.30420546 6 12 C5.67 12.66 5.34 13.32 5 14 C4.27522461 13.98428955 3.55044922 13.9685791 2.80371094 13.95239258 C-0.54744349 13.88921857 -3.89847197 13.85075114 -7.25 13.8125 C-8.95929688 13.77479492 -8.95929688 13.77479492 -10.703125 13.73632812 C-17.71011851 13.67660943 -23.82728096 14.3974612 -30.56542969 16.3503418 C-33 17 -33 17 -36 17 C-35 14 -35 14 -31.97265625 12.28125 C-30.67511453 11.67483587 -29.371278 11.08176692 -28.0625 10.5 C-27.38823975 10.19247803 -26.71397949 9.88495605 -26.01928711 9.56811523 C-20.80626898 7.23997724 -15.54888571 5.37090118 -10 4 C-11.98 4 -13.96 4 -16 4 C-16 3.34 -16 2.68 -16 2 C-10.61972975 0.80911014 -5.54708616 -0.2919519 0 0 Z " fill="#F5A810" transform="translate(108,65)"/>
<path d="M0 0 C-3.23739359 2.1582624 -6.39473052 3.17273859 -10.0625 4.3125 C-16.28948267 6.31709725 -22.43951193 8.47835755 -28 12 C-28.33 12.66 -28.66 13.32 -29 14 C-28.21882813 13.71125 -27.43765625 13.4225 -26.6328125 13.125 C-14.71315129 9.30221333 -3.13849033 9.65597295 9.28369141 10.05004883 C11.97889516 10.00038886 14.3669177 9.53506637 17 9 C18.921875 9.671875 18.921875 9.671875 20.75 10.75 C23.5987706 12.31842426 26.25494271 13.45993019 29.375 14.375 C34.74992793 16.05407871 39.29321943 18.96368435 44 22 C43.34 22.33 42.68 22.66 42 23 C39.75 22.109375 39.75 22.109375 37 20.75 C28.88835994 16.94336107 21.98142092 14.67340288 13 15 C12.505 14.505 12.505 14.505 12 14 C-1.50528516 12.97762016 -15.07944537 13.09264322 -28.05859375 17.125 C-31 18 -31 18 -35 18 C-35.33 18.99 -35.66 19.98 -36 21 C-37.92578125 21.84375 -37.92578125 21.84375 -40.3125 22.5 C-43.8221791 23.54567301 -46.0919736 24.76305662 -49 27 C-49.99 26.67 -50.98 26.34 -52 26 C-39.6537401 14.00466738 -18.09810998 -0.53976819 0 0 Z " fill="#F7D47E" transform="translate(101,68)"/>
<path d="M0 0 C1.65 0 3.3 0 5 0 C5 6.27 5 12.54 5 19 C3.081875 19.0825 1.16375 19.165 -0.8125 19.25 C-2.43091797 19.31960937 -2.43091797 19.31960937 -4.08203125 19.390625 C-7 19 -7 19 -8.859375 17.171875 C-10.41887138 14.20242298 -10.48251113 12.30864772 -10 9 C-8.375 6.625 -8.375 6.625 -6 5 C-2.75 4.75 -2.75 4.75 0 5 C0 3.35 0 1.7 0 0 Z " fill="#FBD890" transform="translate(162,96)"/>
<path d="M0 0 C0.66 0.66 1.32 1.32 2 2 C4.57061311 2.64767793 4.57061311 2.64767793 7 3 C7 4.32 7 5.64 7 7 C4.14804778 8.42597611 1.67538825 8.1320252 -1.5 8.125 C-2.6653125 8.12757813 -3.830625 8.13015625 -5.03125 8.1328125 C-8 8 -8 8 -10 7 C-10.99 7.66 -11.98 8.32 -13 9 C-16.01513672 9.24291992 -16.01513672 9.24291992 -19.6796875 9.23046875 C-20.32946564 9.23001053 -20.97924377 9.22955231 -21.64871216 9.2290802 C-23.02217435 9.22606258 -24.39563326 9.21819085 -25.76904297 9.20581055 C-27.86047645 9.18762628 -29.95146466 9.18530053 -32.04296875 9.18554688 C-43.16917844 9.14462269 -43.16917844 9.14462269 -48 8 C-46.75 5.5 -46.75 5.5 -45 3 C-43.68 3 -42.36 3 -41 3 C-40.67 3.99 -40.34 4.98 -40 6 C-35.49004335 6.67858144 -31.28454007 7.18364249 -26.75 6.5 C-23.34767288 6.04635638 -21.25860309 6.13742859 -18 7 C-17.34 7 -16.68 7 -16 7 C-16 5.02 -16 3.04 -16 1 C-10.72 1.33 -5.44 1.66 0 2 C0 1.34 0 0.68 0 0 Z " fill="#F4A812" transform="translate(125,120)"/>
<path d="M0 0 C1.15693359 0.00644531 2.31386719 0.01289062 3.50585938 0.01953125 C5.30313477 0.04466797 5.30313477 0.04466797 7.13671875 0.0703125 C8.96299805 0.08384766 8.96299805 0.08384766 10.82617188 0.09765625 C13.82572149 0.12118213 16.82486919 0.15405597 19.82421875 0.1953125 C19.82421875 2.5053125 19.82421875 4.8153125 19.82421875 7.1953125 C19.16421875 7.1953125 18.50421875 7.1953125 17.82421875 7.1953125 C17.82421875 5.5453125 17.82421875 3.8953125 17.82421875 2.1953125 C17.16421875 2.1953125 16.50421875 2.1953125 15.82421875 2.1953125 C15.82421875 3.8453125 15.82421875 5.4953125 15.82421875 7.1953125 C15.16421875 7.1953125 14.50421875 7.1953125 13.82421875 7.1953125 C13.82421875 5.5453125 13.82421875 3.8953125 13.82421875 2.1953125 C12.83421875 2.1953125 11.84421875 2.1953125 10.82421875 2.1953125 C10.84484375 2.9996875 10.86546875 3.8040625 10.88671875 4.6328125 C10.82421875 7.1953125 10.82421875 7.1953125 9.82421875 8.1953125 C7.70037547 8.2684476 5.57421603 8.27892174 3.44921875 8.2578125 C2.28648437 8.24878906 1.12375 8.23976562 -0.07421875 8.23046875 C-1.09773437 8.21886719 -2.12125 8.20726562 -3.17578125 8.1953125 C-6.01545356 8.1953125 -8.41313836 8.59798431 -11.17578125 9.1953125 C-11.17578125 6.8853125 -11.17578125 4.5753125 -11.17578125 2.1953125 C-7.29444094 0.38171937 -4.26884608 -0.0420576 0 0 Z " fill="#F6B53A" transform="translate(146.17578125,119.8046875)"/>
<path d="M0 0 C1.32 0.33 2.64 0.66 4 1 C3.01 1 2.02 1 1 1 C1 1.66 1 2.32 1 3 C2.4800841 2.88637738 3.95910074 2.75877092 5.4375 2.625 C6.26121094 2.55539063 7.08492188 2.48578125 7.93359375 2.4140625 C8.95646484 2.20910156 8.95646484 2.20910156 10 2 C10.33 1.34 10.66 0.68 11 0 C11 0.66 11 1.32 11 2 C18.59 2 26.18 2 34 2 C34 1.34 34 0.68 34 0 C34.99 0 35.98 0 37 0 C37 2.31 37 4.62 37 7 C32.91400346 7.85520858 30.04821987 7.85225681 26 7 C24.65938457 7.30271961 23.32594105 7.63837971 22 8 C18.15810577 8.16348486 14.74163931 7.88038572 11 7 C10.67 5.68 10.34 4.36 10 3 C7.94729537 4.84188612 7.94729537 4.84188612 7 7 C4.67843403 7.40729228 2.3431213 7.74438677 0 8 C0 5.36 0 2.72 0 0 Z " fill="#F7C652" transform="translate(72,120)"/>
<path d="M0 0 C1.32 0 2.64 0 4 0 C4 0.66 4 1.32 4 2 C7.3 2 10.6 2 14 2 C14.33 2.66 14.66 3.32 15 4 C16.32 2.68 17.64 1.36 19 0 C19 0.66 19 1.32 19 2 C21.31 2 23.62 2 26 2 C26.33 1.34 26.66 0.68 27 0 C27 0.99 27 1.98 27 3 C28.98 2.67 30.96 2.34 33 2 C33 3.65 33 5.3 33 7 C29.25 8.125 29.25 8.125 27 7 C26.236875 7.185625 25.47375 7.37125 24.6875 7.5625 C22 8 22 8 19.5 6.9375 C17.02949519 5.68701921 17.02949519 5.68701921 14.73828125 6.93359375 C11.5366353 8.18045444 9.10928598 8.20020409 5.6875 8.125 C4.61886719 8.10695312 3.55023438 8.08890625 2.44921875 8.0703125 C1.64097656 8.04710937 0.83273438 8.02390625 0 8 C0 7.01 0 6.02 0 5 C0.66 5.33 1.32 5.66 2 6 C2 5.34 2 4.68 2 4 C1.01 3.67 0.02 3.34 -1 3 C-0.67 2.01 -0.34 1.02 0 0 Z " fill="#F8C44A" transform="translate(35,120)"/>
<path d="M0 0 C0 4.29 0 8.58 0 13 C-10.47610182 13.36974477 -10.47610182 13.36974477 -12.83203125 11.70703125 C-14.78547961 8.85199133 -14.35745403 6.33623765 -14 3 C-10.71722292 -1.79790496 -5.19568272 -0.18337704 0 0 Z " fill="#FEF3D2" transform="translate(150,102)"/>
<path d="M0 0 C2.8125 1.25 2.8125 1.25 5 3 C5.8125 5.1875 5.8125 5.1875 6 7 C4.68 7 3.36 7 2 7 C1.67 6.34 1.34 5.68 1 5 C-1.33294775 4.95758277 -3.66702567 4.95907063 -6 5 C-7.40432936 6.17718985 -7.40432936 6.17718985 -7.125 9.5 C-7.40432936 12.82281015 -7.40432936 12.82281015 -6 14 C-3.66702567 14.04092937 -1.33294775 14.04241723 1 14 C1.33 13.34 1.66 12.68 2 12 C3.32 12 4.64 12 6 12 C5.8125 13.8125 5.8125 13.8125 5 16 C2.30988827 18.15208938 0.41279747 18.93980037 -3 19.4375 C-6.72413693 18.8943967 -8.32854076 17.59513183 -11 15 C-12.62220646 11.75558709 -12.70159132 8.49459297 -12 5 C-8.33086642 0.80670448 -5.57990079 -0.94977035 0 0 Z " fill="#FEEEC5" transform="translate(46,96)"/>
<path d="M0 0 C3.91032679 0.62565229 5.56161487 1.47054485 8.125 4.5 C8.125 8.0178705 7.77348537 10.38316408 6 13.4375 C2.95031829 15.16565297 0.53981611 14.92685201 -2.875 14.5 C-5.51269276 12.28774156 -5.82423246 10.90614032 -6.25 7.5 C-5.6771666 2.9173328 -4.71087317 0.81928229 0 0 Z " fill="#FEEEC2" transform="translate(59.875,100.5)"/>
<path d="M0 0 C0.33 0 0.66 0 1 0 C1.19600577 2.22843488 1.38146569 4.45779893 1.5625 6.6875 C1.66691406 7.92886719 1.77132812 9.17023438 1.87890625 10.44921875 C1.98493841 13.55835533 1.77228525 16.00810972 1 19 C0.67 19 0.34 19 0 19 C0 12.73 0 6.46 0 0 Z M-17 6 C-16.01 6.33 -15.02 6.66 -14 7 C-14.06510417 8.98567708 -14.13020833 10.97135417 -14.1953125 12.95703125 C-14.13254462 15.31359719 -14.13254462 15.31359719 -12 18 C-9.11404054 18.58481121 -9.11404054 18.58481121 -5.875 18.6875 C-4.77929688 18.75324219 -3.68359375 18.81898437 -2.5546875 18.88671875 C-1.71164063 18.92410156 -0.86859375 18.96148437 0 19 C-3 21 -3 21 -5 21 C-5 21.66 -5 22.32 -5 23 C-3.68 23.33 -2.36 23.66 -1 24 C-5.95 24.33 -10.9 24.66 -16 25 C-16 23.68 -16 22.36 -16 21 C-20.29 21 -24.58 21 -29 21 C-28.67 20.01 -28.34 19.02 -28 18 C-24.37 18.33 -20.74 18.66 -17 19 C-17 14.71 -17 10.42 -17 6 Z " fill="#F4A014" transform="translate(167,96)"/>
<path d="M0 0 C2.81256281 -0.02684312 5.62487241 -0.04676188 8.4375 -0.0625 C9.23994141 -0.07087891 10.04238281 -0.07925781 10.86914062 -0.08789062 C12.91295221 -0.0965143 14.95683902 -0.0522815 17 0 C18 1 18 1 18.09765625 3.72265625 C18.08605469 4.82480469 18.07445313 5.92695312 18.0625 7.0625 C18.05347656 8.16722656 18.04445313 9.27195312 18.03515625 10.41015625 C18.02355469 11.26480469 18.01195313 12.11945313 18 13 C17.01 13 16.02 13 15 13 C15 9.7 15 6.4 15 3 C13.68 3 12.36 3 11 3 C11 6.3 11 9.6 11 13 C9.68 13 8.36 13 7 13 C7 9.7 7 6.4 7 3 C5.68 3 4.36 3 3 3 C3 6.3 3 9.6 3 13 C2.01 13 1.02 13 0 13 C0 8.71 0 4.42 0 0 Z " fill="#FEF5CE" transform="translate(70,102)"/>
<path d="M0 0 C-3.23719586 2.15813058 -6.39460812 3.17346805 -10.0625 4.3125 C-16.36326024 6.32932322 -22.19675112 8.79114474 -28 12 C-28 12.99 -28 13.98 -28 15 C-30.31 15.66 -32.62 16.32 -35 17 C-35.07605469 17.62777344 -35.15210937 18.25554687 -35.23046875 18.90234375 C-36 21 -36 21 -37.92578125 21.94140625 C-38.71339844 22.14636719 -39.50101563 22.35132812 -40.3125 22.5625 C-43.84609192 23.57609768 -46.07941924 24.75339941 -49 27 C-49.99 26.67 -50.98 26.34 -52 26 C-39.6537401 14.00466738 -18.09810998 -0.53976819 0 0 Z " fill="#F9D778" transform="translate(101,68)"/>
<path d="M0 0 C0 0.99 0 1.98 0 3 C0.99 3 1.98 3 3 3 C3 3.66 3 4.32 3 5 C3.99 4.67 4.98 4.34 6 4 C6 8.29 6 12.58 6 17 C6.99 17 7.98 17 9 17 C9 13.7 9 10.4 9 7 C10.32 7 11.64 7 13 7 C13 10.3 13 13.6 13 17 C14.32 17 15.64 17 17 17 C17 13.7 17 10.4 17 7 C18.32 7 19.64 7 21 7 C21 10.3 21 13.6 21 17 C20.67 17 20.34 17 20 17 C20 14.03 20 11.06 20 8 C19.34 8 18.68 8 18 8 C18 11.3 18 14.6 18 18 C16.02 18.66 14.04 19.32 12 20 C11.67 19.34 11.34 18.68 11 18 C10.67 18.33 10.34 18.66 10 19 C8.33382885 19.04063832 6.66611905 19.042721 5 19 C5 18.01 5 17.02 5 16 C3.68 15.67 2.36 15.34 1 15 C1.66 14.01 2.32 13.02 3 12 C3.5 9.5 3.5 9.5 3 7 C0.32191002 4.2227215 -2.23840019 3.52244442 -6 3 C-2.25 0 -2.25 0 0 0 Z " fill="#ECAE32" transform="translate(64,98)"/>
<path d="M0 0 C0.33 0.99 0.66 1.98 1 3 C2.98 3 4.96 3 7 3 C7 4.32 7 5.64 7 7 C5.35 7 3.7 7 2 7 C1.67 7.99 1.34 8.98 1 10 C-2.375 10.125 -2.375 10.125 -6 10 C-8 8 -8 8 -8.125 4.375 C-8.08375 3.26125 -8.0425 2.1475 -8 1 C-5.07175348 0.02391783 -3.04386724 -0.08226668 0 0 Z " fill="#F9A008" transform="translate(46,101)"/>
<path d="M0 0 C2 3 2 3 1.6875 6.625 C1 10 1 10 0 11 C-1.99958364 11.04080783 -4.00045254 11.04254356 -6 11 C-5.505 10.608125 -5.01 10.21625 -4.5 9.8125 C-2.54406857 7.44908285 -2.75792027 5.98564997 -3 3 C-4.98 3 -6.96 3 -9 3 C-8.34 5.64 -7.68 8.28 -7 11 C-7.99 11 -8.98 11 -10 11 C-10 12.65 -10 14.3 -10 16 C-10.33 16 -10.66 16 -11 16 C-11.91657981 10.61509359 -12.11138159 5.45769811 -12 0 C-7.74407932 -1.16070564 -4.29748027 -0.9730144 0 0 Z " fill="#FEF3C2" transform="translate(103,103)"/>
<path d="M0 0 C0.99 0 1.98 0 3 0 C3.33 3.3 3.66 6.6 4 10 C5.32 10 6.64 10 8 10 C8 6.7 8 3.4 8 0 C9.32 0 10.64 0 12 0 C12 4.29 12 8.58 12 13 C10.39125 13.061875 8.7825 13.12375 7.125 13.1875 C5.76761719 13.23970703 5.76761719 13.23970703 4.3828125 13.29296875 C3.20332031 13.14794922 3.20332031 13.14794922 2 13 C-0.20914 9.68629 -0.22481553 8.6553979 -0.125 4.8125 C-0.10695313 3.91144531 -0.08890625 3.01039062 -0.0703125 2.08203125 C-0.04710938 1.39496094 -0.02390625 0.70789063 0 0 Z " fill="#FEF3C9" transform="translate(107,102)"/>
<path d="M0 0 C1.77890625 0.02030273 1.77890625 0.02030273 3.59375 0.04101562 C6.47966693 0.07592591 9.36457264 0.12495461 12.25 0.1875 C12.25 0.8475 12.25 1.5075 12.25 2.1875 C10.98929688 2.20167969 9.72859375 2.21585937 8.4296875 2.23046875 C-2.65290339 2.4891231 -12.89620776 3.75377173 -23.63916016 6.54760742 C-24.51233887 6.7716626 -25.38551758 6.99571777 -26.28515625 7.2265625 C-27.052229 7.43490723 -27.81930176 7.64325195 -28.60961914 7.85791016 C-30.96393064 8.22044244 -32.50243201 7.91894006 -34.75 7.1875 C-23.36907686 1.52577813 -12.65518188 -0.27915842 0 0 Z " fill="#FEF1BC" transform="translate(100.75,77.8125)"/>
<path d="M0 0 C0.66 0.66 1.32 1.32 2 2 C4.57061311 2.64767793 4.57061311 2.64767793 7 3 C7 4.32 7 5.64 7 7 C4.16239474 8.41880263 1.72317025 8.1320472 -1.4375 8.125 C-2.59121094 8.12757813 -3.74492188 8.13015625 -4.93359375 8.1328125 C-8 8 -8 8 -11 7 C-10.125 3.125 -10.125 3.125 -9 2 C-7.48071962 1.92820036 -5.95832518 1.91607993 -4.4375 1.9375 C-3.61121094 1.94652344 -2.78492187 1.95554687 -1.93359375 1.96484375 C-1.29550781 1.97644531 -0.65742187 1.98804687 0 2 C0 1.34 0 0.68 0 0 Z " fill="#F2BE4B" transform="translate(125,120)"/>
<path d="M0 0 C1.98 0 3.96 0 6 0 C6 0.33 6 0.66 6 1 C4.35 1 2.7 1 1 1 C1.14107747 2.45880109 1.28802415 3.91703551 1.4375 5.375 C1.51871094 6.18710938 1.59992188 6.99921875 1.68359375 7.8359375 C1.89090114 10.04272805 1.89090114 10.04272805 3 12 C3.99 12 4.98 12 6 12 C5.34 11.01 4.68 10.02 4 9 C3.875 6.3125 3.875 6.3125 4 4 C5.9914056 3.61866701 7.99279077 3.28674418 10 3 C11 4 11 4 11.1875 6.4375 C11 9 11 9 9 11 C9.99 11.66 10.98 12.32 12 13 C8.71303767 13.79953138 7.28976808 14.09658936 4 13 C4 14.65 4 16.3 4 18 C2.68 18 1.36 18 0 18 C0 12.06 0 6.12 0 0 Z " fill="#FAE3A8" transform="translate(90,102)"/>
<path d="M0 0 C0.66 1.32 1.32 2.64 2 4 C-0.64 4 -3.28 4 -6 4 C-6 5.65 -6 7.3 -6 9 C-4.68 9.33 -3.36 9.66 -2 10 C-2 9.34 -2 8.68 -2 8 C-0.68 8 0.64 8 2 8 C0.125 11.875 0.125 11.875 -1 13 C-4.375 13.3125 -4.375 13.3125 -8 13 C-10.66266871 10.76679398 -10.95347082 9.3799883 -11.375 5.9375 C-11 3 -11 3 -10 1.125 C-6.74686316 -0.70488947 -3.68609891 -0.18128355 0 0 Z " fill="#FEEFC4" transform="translate(132,102)"/>
<path d="M0 0 C0.66 0.33 1.32 0.66 2 1 C1.01 1.66 0.02 2.32 -1 3 C6.59 3 14.18 3 22 3 C22.495 3.99 22.495 3.99 23 5 C22.09459473 5.02187378 22.09459473 5.02187378 21.17089844 5.04418945 C5.96783044 5.34310661 5.96783044 5.34310661 -8.85546875 8.37890625 C-11 9 -11 9 -14 9 C-13 6 -13 6 -10.12890625 4.359375 C-8.95199219 3.82828125 -7.77507812 3.2971875 -6.5625 2.75 C-4.80099609 1.93789062 -4.80099609 1.93789062 -3.00390625 1.109375 C-2.01261719 0.74328125 -1.02132812 0.3771875 0 0 Z " fill="#EFB22E" transform="translate(86,73)"/>
<path d="M0 0 C0.99 0 1.98 0 3 0 C3 5.61 3 11.22 3 17 C-0.3 17 -3.6 17 -7 17 C-7.33 16.34 -7.66 15.68 -8 15 C-5.69 14.34 -3.38 13.68 -1 13 C-1.33 11.35 -1.66 9.7 -2 8 C-2.99 7.67 -3.98 7.34 -5 7 C-5 6.34 -5 5.68 -5 5 C-3.35 5 -1.7 5 0 5 C0 3.35 0 1.7 0 0 Z " fill="#FEF7DE" transform="translate(163,97)"/>
<path d="M0 0 C11.79192825 -0.92017937 11.79192825 -0.92017937 14.75390625 1.3359375 C15.8125 3 15.8125 3 17 6 C13 6 9 6 5 6 C3.32900023 6.31088368 1.66128463 6.64080332 0 7 C0 4.69 0 2.38 0 0 Z " fill="#FAC44E" transform="translate(135,122)"/>
<path d="M0 0 C1.34262065 0.29369827 2.67696283 0.6278958 4 1 C4.99 0.67 5.98 0.34 7 0 C7 0.66 7 1.32 7 2 C8.65 2 10.3 2 12 2 C13.1482685 4.296537 13.11561175 5.58313167 13.09765625 8.1328125 C13.09443359 8.93847656 13.09121094 9.74414062 13.08789062 10.57421875 C13.07951172 11.41597656 13.07113281 12.25773437 13.0625 13.125 C13.05798828 13.97449219 13.05347656 14.82398437 13.04882812 15.69921875 C13.03702874 17.79950909 13.01909306 19.8997633 13 22 C12.67 22 12.34 22 12 22 C11.34 16.39 10.68 10.78 10 5 C4.39 4.67 -1.22 4.34 -7 4 C-5.68 3.34 -4.36 2.68 -3 2 C-2.01 1.34 -1.02 0.68 0 0 Z " fill="#F1B12D" transform="translate(77,98)"/>
<path d="M0 0 C1 1 1 1 1.09765625 3.72265625 C1.08605469 4.82480469 1.07445313 5.92695312 1.0625 7.0625 C1.05347656 8.16722656 1.04445313 9.27195312 1.03515625 10.41015625 C1.02355469 11.26480469 1.01195313 12.11945313 1 13 C0.01 13 -0.98 13 -2 13 C-2 9.7 -2 6.4 -2 3 C-3.32 3 -4.64 3 -6 3 C-6 6.3 -6 9.6 -6 13 C-7.32 13 -8.64 13 -10 13 C-10 9.7 -10 6.4 -10 3 C-9.67 3 -9.34 3 -9 3 C-9 5.97 -9 8.94 -9 12 C-8.34 12 -7.68 12 -7 12 C-7.33 8.37 -7.66 4.74 -8 1 C-5.26752652 -0.36623674 -3.01801098 -0.128426 0 0 Z " fill="#FEEFBC" transform="translate(87,102)"/>
<path d="M0 0 C1.32 0 2.64 0 4 0 C4 0.66 4 1.32 4 2 C5.65 2 7.3 2 9 2 C8.67 2.66 8.34 3.32 8 4 C7.01 4.33 6.02 4.66 5 5 C5.99 5.33 6.98 5.66 8 6 C8.33 5.67 8.66 5.34 9 5 C10.32520503 4.31731862 11.65812182 3.6492959 13 3 C13.33 4.32 13.66 5.64 14 7 C11.23547967 8.38226016 8.9538637 8.09525387 5.875 8.0625 C4.77929688 8.05347656 3.68359375 8.04445312 2.5546875 8.03515625 C1.29011719 8.01775391 1.29011719 8.01775391 0 8 C0 7.01 0 6.02 0 5 C0.66 5.33 1.32 5.66 2 6 C2 5.34 2 4.68 2 4 C1.01 3.67 0.02 3.34 -1 3 C-0.67 2.01 -0.34 1.02 0 0 Z " fill="#F5C157" transform="translate(35,120)"/>
<path d="M0 0 C-0.66 0.66 -1.32 1.32 -2 2 C-2.46162427 4.43252661 -2.46162427 4.43252661 -2.625 7.125 C-2.69976562 8.03507812 -2.77453125 8.94515625 -2.8515625 9.8828125 C-2.90054688 10.58148438 -2.94953125 11.28015625 -3 12 C-4.32 12 -5.64 12 -7 12 C-8.21693876 9.56612247 -8.31959896 7.58161154 -8.5625 4.875 C-8.64628906 3.96492188 -8.73007813 3.05484375 -8.81640625 2.1171875 C-8.87699219 1.41851562 -8.93757813 0.71984375 -9 0 C-2.25 -1.125 -2.25 -1.125 0 0 Z " fill="#F3AF1C" transform="translate(118,100)"/>
<path d="M0 0 C1.2065625 0.0309375 1.2065625 0.0309375 2.4375 0.0625 C-0.75776321 2.63108931 -4.10481852 4.44853623 -7.75 6.3125 C-13.53190842 9.37312647 -18.58494576 12.8309358 -23.5625 17.0625 C-23.8925 16.0725 -24.2225 15.0825 -24.5625 14.0625 C-22.5825 12.4125 -20.6025 10.7625 -18.5625 9.0625 C-17.9025 9.3925 -17.2425 9.7225 -16.5625 10.0625 C-16.5625 9.4025 -16.5625 8.7425 -16.5625 8.0625 C-15.9025 8.0625 -15.2425 8.0625 -14.5625 8.0625 C-14.5625 7.4025 -14.5625 6.7425 -14.5625 6.0625 C-13.5725 6.0625 -12.5825 6.0625 -11.5625 6.0625 C-11.5625 5.4025 -11.5625 4.7425 -11.5625 4.0625 C-10.99660156 3.85753906 -10.43070313 3.65257813 -9.84765625 3.44140625 C-9.11417969 3.17199219 -8.38070312 2.90257813 -7.625 2.625 C-6.89410156 2.35816406 -6.16320312 2.09132813 -5.41015625 1.81640625 C-1.01948925 0.02486559 -1.01948925 0.02486559 0 0 Z " fill="#F1A923" transform="translate(78.5625,72.9375)"/>
<path d="M0 0 C1.32 0.33 2.64 0.66 4 1 C3.01 1 2.02 1 1 1 C1 1.66 1 2.32 1 3 C2.4800841 2.88637738 3.95910074 2.75877092 5.4375 2.625 C6.26121094 2.55539063 7.08492188 2.48578125 7.93359375 2.4140625 C8.95646484 2.20910156 8.95646484 2.20910156 10 2 C10.33 1.34 10.66 0.68 11 0 C11 0.66 11 1.32 11 2 C11.99 2 12.98 2 14 2 C13.67 3.65 13.34 5.3 13 7 C12.01 7 11.02 7 10 7 C10 5.68 10 4.36 10 3 C7.94729537 4.84188612 7.94729537 4.84188612 7 7 C4.67843403 7.40729228 2.3431213 7.74438677 0 8 C0 5.36 0 2.72 0 0 Z " fill="#FAC049" transform="translate(72,120)"/>
<path d="M0 0 C0.99 0.33 1.98 0.66 3 1 C3 1.99 3 2.98 3 4 C3.99 4 4.98 4 6 4 C5.85691406 4.90492187 5.85691406 4.90492187 5.7109375 5.828125 C5.54464844 7.02695313 5.54464844 7.02695313 5.375 8.25 C5.25898437 9.03890625 5.14296875 9.8278125 5.0234375 10.640625 C4.99680605 13.32152459 5.63407916 14.72694089 7 17 C6.34 17 5.68 17 5 17 C4.67 16.34 4.34 15.68 4 15 C2.02 15.33 0.04 15.66 -2 16 C-1.54625 15.649375 -1.0925 15.29875 -0.625 14.9375 C1.64661334 12.22903794 2.16798854 9.39204672 3 6 C1.02 6 -0.96 6 -3 6 C-3.33 5.34 -3.66 4.68 -4 4 C-6.31 4 -8.62 4 -11 4 C-10.67 3.34 -10.34 2.68 -10 2 C-7.69 2 -5.38 2 -3 2 C-2.67 2.99 -2.34 3.98 -2 5 C-0.68 5 0.64 5 2 5 C1.34 3.35 0.68 1.7 0 0 Z " fill="#F0AA34" transform="translate(50,98)"/>
<path d="M0 0 C0 2.64 0 5.28 0 8 C-3.55926692 9.09583341 -6.91387296 9.16655685 -10.625 9.1875 C-11.77226563 9.20167969 -12.91953125 9.21585938 -14.1015625 9.23046875 C-17 9 -17 9 -19 7 C-17 6 -17 6 -15.125 6.5 C-13.01851673 7.16693992 -13.01851673 7.16693992 -11 6.5 C-8.65351906 5.91337977 -7.27399422 6.26907328 -5 7 C-4.896875 6.21625 -4.79375 5.4325 -4.6875 4.625 C-4.00541465 2.02067414 -3.23533224 0 0 0 Z " fill="#F4A91A" transform="translate(72,120)"/>
<path d="M0 0 C0.99 0 1.98 0 3 0 C3.66 1.98 4.32 3.96 5 6 C6.98 5.67 8.96 5.34 11 5 C10.67 6.65 10.34 8.3 10 10 C3.57789614 10.48468708 3.57789614 10.48468708 1.0625 8.375 C-0.25066255 5.43969547 -0.21691118 3.18136394 0 0 Z " fill="#FEF2CC" transform="translate(54,105)"/>
<path d="M0 0 C-0.99 0.33 -1.98 0.66 -3 1 C-3 4.3 -3 7.6 -3 11 C-3.66 10.67 -4.32 10.34 -5 10 C-5.66666667 7.66666667 -6.33333333 5.33333333 -7 3 C-9.56893838 1.71553081 -11.76576337 1.67022856 -14.625 1.4375 C-15.62789063 1.35371094 -16.63078125 1.26992187 -17.6640625 1.18359375 C-18.43492188 1.12300781 -19.20578125 1.06242187 -20 1 C-20 0.67 -20 0.34 -20 0 C-17.79245484 -0.19656224 -15.58390461 -0.38185459 -13.375 -0.5625 C-12.14523438 -0.66691406 -10.91546875 -0.77132812 -9.6484375 -0.87890625 C-6.24372538 -0.99191061 -3.32441602 -0.69045563 0 0 Z " fill="#EDB53F" transform="translate(110,101)"/>
<path d="M0 0 C1.32 0 2.64 0 4 0 C4 0.66 4 1.32 4 2 C5.65 2 7.3 2 9 2 C9 2.99 9 3.98 9 5 C7.35 5 5.7 5 4 5 C4 5.66 4 6.32 4 7 C2.35 6.67 0.7 6.34 -1 6 C-1.042721 4.33388095 -1.04063832 2.66617115 -1 1 C-0.67 0.67 -0.34 0.34 0 0 Z " fill="#EFAA21" transform="translate(126,105)"/>
<path d="M0 0 C1.98 0 3.96 0 6 0 C6.625 2.375 6.625 2.375 7 5 C6.34 5.66 5.68 6.32 5 7 C2.375 6.625 2.375 6.625 0 6 C-1.125 2.25 -1.125 2.25 0 0 Z " fill="#EEAA2D" transform="translate(140,105)"/>
<path d="M0 0 C0.625 2.375 0.625 2.375 1 5 C0.34 5.66 -0.32 6.32 -1 7 C-3.625 6.625 -3.625 6.625 -6 6 C-6 4.02 -6 2.04 -6 0 C-3.50907189 -1.24546405 -2.58919267 -0.7767578 0 0 Z " fill="#EFA62B" transform="translate(162,105)"/>
<path d="M0 0 C1.98 0 3.96 0 6 0 C6 3.65923696 5.24243223 5.13896577 3 8 C0.3125 8.3125 0.3125 8.3125 -2 8 C-2 7.34 -2 6.68 -2 6 C-1.34 6 -0.68 6 0 6 C0 4.02 0 2.04 0 0 Z " fill="#F2BE43" transform="translate(109,121)"/>
<path d="M0 0 C0.042721 1.66611905 0.04063832 3.33382885 0 5 C-1 6 -1 6 -3.5 6.125 C-6 6 -6 6 -7 5 C-7.04063832 3.33382885 -7.042721 1.66611905 -7 0 C-4.3333581 -1.33332095 -2.83319697 -0.67102033 0 0 Z " fill="#EDB027" transform="translate(101,106)"/>
<path d="M0 0 C0.66 0 1.32 0 2 0 C2 2.31 2 4.62 2 7 C-4.93 7 -11.86 7 -19 7 C-18.67 6.01 -18.34 5.02 -18 4 C-17.34 4.33 -16.68 4.66 -16 5 C-13.44842345 5.0716735 -10.92527029 5.09308442 -8.375 5.0625 C-7.66859375 5.05798828 -6.9621875 5.05347656 -6.234375 5.04882812 C-4.48954725 5.03703875 -2.744763 5.01910324 -1 5 C-0.67 3.35 -0.34 1.7 0 0 Z " fill="#F5A414" transform="translate(133,122)"/>
<path d="M0 0 C0.66 0.66 1.32 1.32 2 2 C4.57061311 2.64767793 4.57061311 2.64767793 7 3 C7 4.32 7 5.64 7 7 C3.98968256 7.93423645 3.13349732 8.04449911 0 7 C0 5.68 0 4.36 0 3 C-0.66 3 -1.32 3 -2 3 C-2.33 4.32 -2.66 5.64 -3 7 C-3 5.35 -3 3.7 -3 2 C-2.01 2 -1.02 2 0 2 C0 1.34 0 0.68 0 0 Z " fill="#F9C955" transform="translate(125,120)"/>
<path d="M0 0 C1.32 0.33 2.64 0.66 4 1 C3.979375 2.093125 3.95875 3.18625 3.9375 4.3125 C3.81455548 7.94384191 3.81455548 7.94384191 5 11 C4.01 11 3.02 11 2 11 C2 12.65 2 14.3 2 16 C1.67 16 1.34 16 1 16 C0.08342019 10.61509359 -0.11138159 5.45769811 0 0 Z " fill="#FEF9E3" transform="translate(91,103)"/>
<path d="M0 0 C1.66611905 -0.042721 3.33382885 -0.04063832 5 0 C6 1 6 1 6.0625 3.5625 C6.041875 4.366875 6.02125 5.17125 6 6 C3.625 6.625 3.625 6.625 1 7 C0.34 6.34 -0.32 5.68 -1 5 C-0.625 2.375 -0.625 2.375 0 0 Z " fill="#EEAD31" transform="translate(58,105)"/>
<path d="M0 0 C0.33 0 0.66 0 1 0 C1 2.31 1 4.62 1 7 C-0.66666667 7 -2.33333333 7 -4 7 C-4.33 5.68 -4.66 4.36 -5 3 C-5.66 3 -6.32 3 -7 3 C-7.33 4.32 -7.66 5.64 -8 7 C-10.97 6.505 -10.97 6.505 -14 6 C-13.67 5.01 -13.34 4.02 -13 3 C-8.545 2.505 -8.545 2.505 -4 2 C-3.67 2.66 -3.34 3.32 -3 4 C-2.2884375 3.01 -2.2884375 3.01 -1.5625 2 C-1.046875 1.34 -0.53125 0.68 0 0 Z " fill="#FDD26A" transform="translate(53,120)"/>
<path d="M0 0 C2.31 0 4.62 0 7 0 C7 1.65 7 3.3 7 5 C5.1875 5.625 5.1875 5.625 3 6 C2.01 5.34 1.02 4.68 0 4 C0 2.68 0 1.36 0 0 Z " fill="#F4B842" transform="translate(54,122)"/>
<path d="M0 0 C4.6175429 -0.32215416 7.33874929 0.07099943 11 3 C11.8125 5.1875 11.8125 5.1875 12 7 C10.68 7 9.36 7 8 7 C7.67 6.34 7.34 5.68 7 5 C3.97065509 4.34227572 3.97065509 4.34227572 1 4 C2.32 3.67 3.64 3.34 5 3 C5 2.34 5 1.68 5 1 C3.35 1 1.7 1 0 1 C0 0.67 0 0.34 0 0 Z " fill="#FEECBF" transform="translate(40,96)"/>
<path d="M0 0 C2.1875 3 2.1875 3 4 6 C1.03 6 -1.94 6 -5 6 C-5 4.35 -5 2.7 -5 1 C-3 0 -3 0 0 0 Z " fill="#F2B643" transform="translate(148,122)"/>
<path d="M0 0 C2.31 0 4.62 0 7 0 C7 2.31 7 4.62 7 7 C6.34 7 5.68 7 5 7 C5 5.35 5 3.7 5 2 C4.34 2 3.68 2 3 2 C3 3.65 3 5.3 3 7 C2.34 7 1.68 7 1 7 C0.67 4.69 0.34 2.38 0 0 Z " fill="#FAE29F" transform="translate(159,120)"/>
<path d="M0 0 C0.99 0.33 1.98 0.66 3 1 C3 5 3 9 3 13 C2.01 13 1.02 13 0 13 C0 8.71 0 4.42 0 0 Z " fill="#EDAB33" transform="translate(150,102)"/>
<path d="M0 0 C0.33 0.99 0.66 1.98 1 3 C-0.42859407 4.03325986 -1.86822383 5.05127634 -3.3125 6.0625 C-4.51326172 6.91521484 -4.51326172 6.91521484 -5.73828125 7.78515625 C-6.48464844 8.18605469 -7.23101562 8.58695313 -8 9 C-8.99 8.67 -9.98 8.34 -11 8 C-9.54712339 6.66072279 -8.08752741 5.32873153 -6.625 4 C-5.81289063 3.2575 -5.00078125 2.515 -4.1640625 1.75 C-2 0 -2 0 0 0 Z " fill="#FEE6A4" transform="translate(60,86)"/>
<path d="M0 0 C5.39533771 -0.33720861 10.32904648 0.01365267 15 3 C16.5 6.1875 16.5 6.1875 17 9 C16.59910156 8.57847656 16.19820312 8.15695313 15.78515625 7.72265625 C11.5755459 3.66577552 8.68141444 2.32233385 2.8203125 2.203125 C2.21960938 2.13609375 1.61890625 2.0690625 1 2 C0.67 1.34 0.34 0.68 0 0 Z " fill="#FEC138" transform="translate(100,67)"/>
<path d="M0 0 C-0.3125 1.875 -0.3125 1.875 -1 4 C-4.4352048 6.29013653 -5.985331 6.17842973 -10 6 C-9 5 -8 4 -7 3 C-6.525625 2.443125 -6.05125 1.88625 -5.5625 1.3125 C-4 0 -4 0 0 0 Z " fill="#FFF2C8" transform="translate(52,108)"/>
<path d="M0 0 C0.66 0 1.32 0 2 0 C2.33 1.32 2.66 2.64 3 4 C0.47524538 5.26237731 -1.31200466 5.09856404 -4.125 5.0625 C-5.03507812 5.05347656 -5.94515625 5.04445312 -6.8828125 5.03515625 C-7.58148438 5.02355469 -8.28015625 5.01195312 -9 5 C-8.01 4.01 -7.02 3.02 -6 2 C-5.01 2.33 -4.02 2.66 -3 3 C-2.67 2.67 -2.34 2.34 -2 2 C-1.34 1.34 -0.68 0.68 0 0 Z " fill="#EFA82E" transform="translate(46,123)"/>
<path d="M0 0 C0.33 0.66 0.66 1.32 1 2 C-3.76307437 2.95261487 -8.1666528 3.08333357 -13 3 C-9.65720955 -0.34279045 -4.48390398 -2.06949415 0 0 Z " fill="#FDEEAF" transform="translate(91,79)"/>
<path d="M0 0 C1.32 0 2.64 0 4 0 C4.33 0.99 4.66 1.98 5 3 C5.99 3.33 6.98 3.66 8 4 C8 4.33 8 4.66 8 5 C4.37 5 0.74 5 -3 5 C-1.75 2.5 -1.75 2.5 0 0 Z " fill="#EFAB29" transform="translate(80,123)"/>
<path d="M0 0 C0 0.99 0 1.98 0 3 C0.99 3 1.98 3 3 3 C3 3.66 3 4.32 3 5 C3.66 5 4.32 5 5 5 C5 6.98 5 8.96 5 11 C4.7525 10.401875 4.505 9.80375 4.25 9.1875 C2.78477848 6.62336233 1.52622797 5.51573678 -1 4 C-3.64934822 3.28566879 -3.64934822 3.28566879 -6 3 C-2.25 0 -2.25 0 0 0 Z " fill="#ECA825" transform="translate(64,98)"/>
<path d="M0 0 C2.204364 0.22950319 4.41392173 0.41075933 6.625 0.5625 C7.81351563 0.64628906 9.00203125 0.73007813 10.2265625 0.81640625 C11.59941406 0.90728516 11.59941406 0.90728516 13 1 C13 1.33 13 1.66 13 2 C2.605 2.495 2.605 2.495 -8 3 C-7 1 -7 1 -4.5625 -0.1875 C-2 -1 -2 -1 0 0 Z " fill="#F4A311" transform="translate(143,127)"/>
<path d="M0 0 C0.33 0.66 0.66 1.32 1 2 C1.99 2 2.98 2 4 2 C3.67 3.65 3.34 5.3 3 7 C2.01 7 1.02 7 0 7 C0 5.68 0 4.36 0 3 C-2.05270463 4.84188612 -2.05270463 4.84188612 -3 7 C-3.66 6.34 -4.32 5.68 -5 5 C-5 4.34 -5 3.68 -5 3 C-3.35 2.67 -1.7 2.34 0 2 C0 1.34 0 0.68 0 0 Z " fill="#FED86A" transform="translate(82,120)"/>
<path d="M0 0 C0 0.66 0 1.32 0 2 C-4.29 2 -8.58 2 -13 2 C-9.02291084 -1.97708916 -5.28744325 -0.91513441 0 0 Z " fill="#F2A717" transform="translate(126,115)"/>
<path d="M0 0 C4.09700171 1.91774548 8.01034826 4.13335783 11.9375 6.375 C10.9475 6.87 10.9475 6.87 9.9375 7.375 C7.44140625 6.44921875 7.44140625 6.44921875 4.5 5.0625 C3.04787109 4.38767578 3.04787109 4.38767578 1.56640625 3.69921875 C-1.0625 2.375 -1.0625 2.375 -4.0625 0.375 C-2.0625 -0.625 -2.0625 -0.625 0 0 Z " fill="#FDDB76" transform="translate(133.0625,83.625)"/>
<path d="M0 0 C0.33 0 0.66 0 1 0 C1 4.29 1 8.58 1 13 C-0.65 12.67 -2.3 12.34 -4 12 C-3.525625 11.319375 -3.05125 10.63875 -2.5625 9.9375 C-0.7774364 6.58158044 -0.36846914 3.75838519 0 0 Z " fill="#F2B747" transform="translate(69,102)"/>
<path d="M0 0 C2.05883923 4.11767846 2.96165128 7.54993405 4 12 C2.68 12 1.36 12 0 12 C0 8.04 0 4.08 0 0 Z " fill="#E4B552" transform="translate(119,102)"/>
<path d="M0 0 C2.475 0.495 2.475 0.495 5 1 C5 4.3 5 7.6 5 11 C4.34 11 3.68 11 3 11 C2.92652344 10.06027344 2.92652344 10.06027344 2.8515625 9.1015625 C2.77679688 8.28429687 2.70203125 7.46703125 2.625 6.625 C2.55539063 5.81289062 2.48578125 5.00078125 2.4140625 4.1640625 C2.17107412 1.79665809 2.17107412 1.79665809 0 0 Z " fill="#FEF9E2" transform="translate(75,103)"/>
<path d="M0 0 C2.64 0 5.28 0 8 0 C8.66 1.32 9.32 2.64 10 4 C8.68 4 7.36 4 6 4 C6 3.34 6 2.68 6 2 C4.02 2 2.04 2 0 2 C0 1.34 0 0.68 0 0 Z " fill="#FEF4CE" transform="translate(124,102)"/>
<path d="M0 0 C0.94875 0.350625 1.8975 0.70125 2.875 1.0625 C-0.40963659 3.25225773 -3.33196275 4.06056563 -7.125 5.0625 C-4.79166667 -1.4375 -4.79166667 -1.4375 0 0 Z " fill="#F1A819" transform="translate(89.125,67.9375)"/>
<path d="M0 0 C2.97 0.495 2.97 0.495 6 1 C5.360625 1.103125 4.72125 1.20625 4.0625 1.3125 C3.381875 1.539375 2.70125 1.76625 2 2 C1.67 2.99 1.34 3.98 1 5 C-1.31 5 -3.62 5 -6 5 C-6.33 4.34 -6.66 3.68 -7 3 C-3.535 2.505 -3.535 2.505 0 2 C0 1.34 0 0.68 0 0 Z " fill="#ECA72C" transform="translate(46,106)"/>
<path d="M0 0 C0.33 0 0.66 0 1 0 C1 1.65 1 3.3 1 5 C-2.3 5.66 -5.6 6.32 -9 7 C-9 6.01 -9 5.02 -9 4 C-8.34 4 -7.68 4 -7 4 C-6.67 3.34 -6.34 2.68 -6 2 C-6 2.66 -6 3.32 -6 4 C-4.02 4 -2.04 4 0 4 C0 2.68 0 1.36 0 0 Z " fill="#F4A11A" transform="translate(161,96)"/>
<path d="M0 0 C1.22589844 0.15275391 1.22589844 0.15275391 2.4765625 0.30859375 C3.41628906 0.43427734 3.41628906 0.43427734 4.375 0.5625 C0.34207255 2.7969598 -3.07467434 3.10746743 -7.625 3.5625 C-7.295 2.5725 -6.965 1.5825 -6.625 0.5625 C-4.10446405 -0.69776798 -2.7707902 -0.35624445 0 0 Z " fill="#ECAF31" transform="translate(79.625,78.4375)"/>
<path d="M0 0 C1.64767247 0.28109113 3.29313145 0.57518526 4.9375 0.875 C5.85402344 1.03742188 6.77054687 1.19984375 7.71484375 1.3671875 C8.46894531 1.57601562 9.22304687 1.78484375 10 2 C10.33 2.66 10.66 3.32 11 4 C9.54119891 3.85892253 8.08296449 3.71197585 6.625 3.5625 C5.40683594 3.44068359 5.40683594 3.44068359 4.1640625 3.31640625 C2 3 2 3 0 2 C0 1.34 0 0.68 0 0 Z " fill="#FEEDAC" transform="translate(120,80)"/>
<path d="M0 0 C0.66 0 1.32 0 2 0 C2.04254356 1.99954746 2.04080783 4.00041636 2 6 C1 7 1 7 -2.0625 7.0625 C-3.5165625 7.0315625 -3.5165625 7.0315625 -5 7 C-4.34 6.34 -3.68 5.68 -3 5 C-2.01 5 -1.02 5 0 5 C0 3.35 0 1.7 0 0 Z " fill="#FEF8DF" transform="translate(102,107)"/>
<path d="M0 0 C1.32 0.33 2.64 0.66 4 1 C3.34 1.66 2.68 2.32 2 3 C1.75712511 5.44012949 1.75712511 5.44012949 1.875 8.125 C1.89304688 9.03507812 1.91109375 9.94515625 1.9296875 10.8828125 C1.95289063 11.58148438 1.97609375 12.28015625 2 13 C1.34 12.67 0.68 12.34 0 12 C0 8.04 0 4.08 0 0 Z " fill="#EEA62C" transform="translate(33,98)"/>
<path d="M0 0 C1.32 0.33 2.64 0.66 4 1 C4 1.99 4 2.98 4 4 C2.68 4.33 1.36 4.66 0 5 C0 3.35 0 1.7 0 0 Z " fill="#F4B83E" transform="translate(94,123)"/>
<path d="M0 0 C0 0.99 0 1.98 0 3 C-2.64 3.33 -5.28 3.66 -8 4 C-6 1 -6 1 -2.875 0.3125 C-1.92625 0.209375 -0.9775 0.10625 0 0 Z " fill="#EEA922" transform="translate(64,114)"/>
<path d="M0 0 C0.99 0 1.98 0 3 0 C2.67 1.65 2.34 3.3 2 5 C0.35 5.33 -1.3 5.66 -3 6 C-2.01 5.67 -1.02 5.34 0 5 C0 3.35 0 1.7 0 0 Z " fill="#EFA921" transform="translate(111,123)"/>
<path d="M0 0 C0.33 1.32 0.66 2.64 1 4 C-1.31 4 -3.62 4 -6 4 C-6.33 3.34 -6.66 2.68 -7 2 C-4.69 1.34 -2.38 0.68 0 0 Z " fill="#FEF9DF" transform="translate(64,110)"/>
<path d="M0 0 C0.99 0 1.98 0 3 0 C3 1.98 3 3.96 3 6 C2.01 6 1.02 6 0 6 C0 4.02 0 2.04 0 0 Z " fill="#FEF3DD" transform="translate(152,105)"/>
<path d="M0 0 C-0.33 0.99 -0.66 1.98 -1 3 C-2.65 2.67 -4.3 2.34 -6 2 C-6 1.34 -6 0.68 -6 0 C-3.50907189 -1.24546405 -2.58919267 -0.7767578 0 0 Z " fill="#F2C566" transform="translate(66,86)"/>
<path d="M0 0 C1.32 0.66 2.64 1.32 4 2 C4 2.66 4 3.32 4 4 C2.35 4.33 0.7 4.66 -1 5 C-0.67 3.35 -0.34 1.7 0 0 Z " fill="#F3A711" transform="translate(63,118)"/>
<path d="M0 0 C0.66 0.66 1.32 1.32 2 2 C3.98821313 2.39764263 5.98944339 2.73775349 8 3 C6 5 6 5 3.375 5.125 C2.59125 5.08375 1.8075 5.0425 1 5 C0.67 3.35 0.34 1.7 0 0 Z " fill="#F0B139" transform="translate(107,112)"/>
<path d="M0 0 C0.66 0 1.32 0 2 0 C1.67 2.64 1.34 5.28 1 8 C0.34 8 -0.32 8 -1 8 C-1.04241723 5.66705225 -1.04092937 3.33297433 -1 1 C-0.67 0.67 -0.34 0.34 0 0 Z " fill="#FFF9E8" transform="translate(36,101)"/>
</svg>
